<svg width="32" height="32" viewBox="0 0 32 32" fill="none" xmlns="http://www.w3.org/2000/svg">
<g clip-path="url(#clip0_2_71)">
<path d="M25.6 0H6.4C2.86538 0 0 2.86538 0 6.4V25.6C0 29.1346 2.86538 32 6.4 32H25.6C29.1346 32 32 29.1346 32 25.6V6.4C32 2.86538 29.1346 0 25.6 0Z" fill="#90F2F2" fill-opacity="0.7"/>
<path d="M22.896 10.2675C22.7684 10.129 22.5931 10.0437 22.4053 10.0289L22.3496 10.0266C22.1612 10.0259 21.9795 10.0964 21.8409 10.224C21.7022 10.3516 21.617 10.5269 21.6022 10.7147H10.3978L10.391 10.6591C10.3611 10.4685 10.2586 10.2968 10.105 10.1801C9.95136 10.0634 9.75848 10.0107 9.56688 10.033C9.3752 10.0554 9.19968 10.151 9.07696 10.3C8.95432 10.449 8.89408 10.6396 8.90888 10.8319L9.97472 24.331L9.98224 24.4056C10.029 24.7654 10.205 25.0958 10.4775 25.3352C10.7501 25.5746 11.1005 25.7067 11.4632 25.7066H20.5367L20.6118 25.7048C20.974 25.6865 21.3173 25.537 21.5774 25.2842C21.8374 25.0314 21.9966 24.6926 22.0252 24.331L23.091 10.8323L23.0933 10.7763C23.0941 10.5879 23.0236 10.4062 22.896 10.2675Z" fill="white"/>
<path d="M24.2134 9.28001C24.407 9.27913 24.5936 9.35361 24.7334 9.48769C24.8733 9.62185 24.9555 9.80505 24.9628 9.99865C24.9701 10.1922 24.9018 10.3811 24.7724 10.5254C24.643 10.6695 24.4626 10.7578 24.2694 10.7714L24.2134 10.7734H7.78667C7.59291 10.7742 7.40641 10.6997 7.26655 10.5656C7.1267 10.4315 7.04445 10.2483 7.03718 10.0547C7.02991 9.86105 7.09819 9.67225 7.22759 9.52801C7.35699 9.38377 7.53739 9.29553 7.73066 9.28185L7.78667 9.28001H24.2134Z" fill="white"/>
<path d="M17.8666 6.29333C18.4462 6.29331 19.0032 6.51792 19.4206 6.91996C19.8381 7.32201 20.0834 7.87018 20.1051 8.44936L20.1066 8.53336V10.0266C20.1075 10.2204 20.033 10.407 19.899 10.5468C19.7648 10.6866 19.5816 10.7689 19.388 10.7762C19.1944 10.7834 19.0055 10.7151 18.8613 10.5858C18.7171 10.4563 18.6289 10.2759 18.6152 10.0826L18.6134 10.0266V8.53336C18.6134 8.34496 18.5422 8.16352 18.4142 8.02536C18.2861 7.88727 18.1105 7.80266 17.9226 7.78853L17.8666 7.78667H14.1333C13.945 7.78661 13.7635 7.85775 13.6254 7.98584C13.4873 8.11392 13.4026 8.28952 13.3885 8.47736L13.3866 8.53336V10.0266C13.3875 10.2204 13.313 10.407 13.179 10.5468C13.0448 10.6866 12.8616 10.7689 12.668 10.7762C12.4744 10.7834 12.2855 10.7151 12.1413 10.5858C11.9971 10.4563 11.9089 10.2759 11.8952 10.0826L11.8933 10.0266V8.53336C11.8933 7.95378 12.1179 7.39678 12.5199 6.97934C12.922 6.56192 13.4702 6.31656 14.0493 6.29483L14.1333 6.29333H17.8666Z" fill="white"/>
<path d="M18.9866 21.2266C19.399 21.2266 19.7334 21.561 19.7334 21.9734C19.7334 22.0714 19.714 22.1685 19.6765 22.259C19.639 22.3497 19.584 22.432 19.5146 22.5013C19.4453 22.5706 19.363 22.6256 19.2724 22.6631C19.1818 22.7007 19.0847 22.72 18.9866 22.72H13.0134C12.9153 22.72 12.8182 22.7007 12.7276 22.6631C12.637 22.6256 12.5547 22.5706 12.4854 22.5013C12.416 22.432 12.361 22.3497 12.3235 22.259C12.286 22.1685 12.2666 22.0714 12.2666 21.9734C12.2666 21.561 12.601 21.2266 13.0134 21.2266H18.9866Z" fill="#B5B5B5"/>
</g>
<defs>
<clipPath id="clip0_2_71">
<rect width="32" height="32" fill="white"/>
</clipPath>
</defs>
</svg>
