<svg width="32" height="32" viewBox="0 0 32 32" fill="none" xmlns="http://www.w3.org/2000/svg">
<path d="M25.6 0H6.4C2.86538 0 0 2.86538 0 6.4V25.6C0 29.1346 2.86538 32 6.4 32H25.6C29.1346 32 32 29.1346 32 25.6V6.4C32 2.86538 29.1346 0 25.6 0Z" fill="#90F2F2" fill-opacity="0.7"/>
<path fill-rule="evenodd" clip-rule="evenodd" d="M21.7838 8.60073L23.5515 10.3685C24.5278 11.3448 24.5278 12.9277 23.5515 13.904L22.0488 15.4067L16.7456 10.1034L18.2482 8.60073C19.2245 7.62441 20.8074 7.62441 21.7838 8.60073ZM15.8617 10.9872L9.0888 17.7601C8.68608 18.1628 8.43293 18.691 8.37127 19.2572L8.04293 22.272C7.92761 23.3308 8.82143 24.2246 9.88024 24.1093L12.895 23.7809C13.4612 23.7192 13.9894 23.4662 14.3921 23.0634L21.1649 16.2905L15.8617 10.9872Z" fill="white"/>
</svg>
